<svg width="512" height="512" fill="none" xmlns="http://www.w3.org/2000/svg"><g clip-path="url(#a)"><path d="m252.95 333.719.104.29h46.394l-.22-.59L188.087 34.967l-.107-.284h-41.062l-.106.284L35.67 333.42l-.22.59h46.397l.103-.292 24.256-68.582h122.053l24.691 68.584zm199.523-101.692-.318-.336-.318.336-175.638 185.392-79.505-84.148-.317-.336-.318.335-30.667 32.371-.285.301.285.3 110.707 116.856.317.335.318-.336L483.14 264.999l.285-.301-.285-.301-30.667-32.37zm-240.621-13.682h-88.805l44.402-124.983 44.403 124.983z" fill="url(#b)" stroke="#000" stroke-width=".875"/></g><defs><linearGradient id="b" x1="259.451" y1="35.12" x2="259.451" y2="482.797" gradientUnits="userSpaceOnUse"><stop stop-color="#0FFF37" stop-opacity=".96"/><stop offset="1" stop-color="#5100E7" stop-opacity=".98"/></linearGradient><clipPath id="a"><path fill="#fff" transform="translate(17 16)" d="M0 0h465.822v466.797H0z"/></clipPath></defs></svg>